<svg xmlns="http://www.w3.org/2000/svg" width="505" height="445" viewBox="0 0 505 445">
  <!-- Placeholder "imagined" illustration (M7 replaces this with the image provider). Original art. -->
  <rect width="505" height="445" fill="#e6d1a6"/>
  <!-- window -->
  <rect x="78" y="30" width="290" height="245" fill="#5a3a2a"/>
  <g fill="#6f8ea6">
    <rect x="90" y="42" width="126" height="104"/>
    <rect x="230" y="42" width="126" height="104"/>
    <rect x="90" y="158" width="126" height="104"/>
    <rect x="230" y="158" width="126" height="104"/>
  </g>
  <g stroke="#a9c0d1" stroke-width="2" stroke-linecap="round">
    <line x1="112" y1="60" x2="104" y2="82"/><line x1="150" y1="72" x2="142" y2="96"/><line x1="192" y1="56" x2="184" y2="78"/>
    <line x1="252" y1="66" x2="244" y2="90"/><line x1="300" y1="52" x2="292" y2="74"/><line x1="338" y1="82" x2="330" y2="106"/>
    <line x1="120" y1="180" x2="112" y2="204"/><line x1="176" y1="200" x2="168" y2="222"/>
    <line x1="262" y1="176" x2="254" y2="198"/><line x1="318" y1="196" x2="310" y2="220"/>
  </g>
  <!-- counter -->
  <path d="M0 296 L505 318 L505 445 L0 445 Z" fill="#8c5536"/>
  <path d="M0 290 L505 312 L505 326 L0 304 Z" fill="#6c3e27"/>
  <!-- mugs -->
  <g>
    <path d="M132 258 L190 258 L186 312 Q 161 320 136 312 Z" fill="#fbf8f2" stroke="#d8d0c2" stroke-width="2"/>
    <ellipse cx="161" cy="259" rx="29" ry="6" fill="#b9a3d1"/>
    <path d="M189 272 Q 206 276 202 292 Q 198 304 186 300" fill="none" stroke="#fbf8f2" stroke-width="5"/>
    <path d="M238 268 L296 268 L292 322 Q 267 330 242 322 Z" fill="#fbf8f2" stroke="#d8d0c2" stroke-width="2"/>
    <ellipse cx="267" cy="269" rx="29" ry="6" fill="#b9a3d1"/>
    <path d="M295 282 Q 312 286 308 302 Q 304 314 292 310" fill="none" stroke="#fbf8f2" stroke-width="5"/>
  </g>
  <g fill="none" stroke="#fbf8f2" stroke-width="2.5" stroke-linecap="round" opacity=".9">
    <path d="M158 244 C 150 230, 166 220, 158 204 C 152 192, 160 186, 160 180"/>
    <path d="M266 252 C 258 238, 274 228, 266 212 C 260 200, 268 194, 268 188"/>
  </g>
  <!-- plant -->
  <path d="M398 170 L430 170 L426 210 L402 210 Z" fill="#b5653a"/>
  <path d="M414 170 C 412 150, 430 140, 446 146 C 438 160, 426 168, 414 170 Z" fill="#6b8a4e"/>
  <!-- tiny red umbrella -->
  <path d="M378 260 C 380 216, 444 206, 462 246 Q 446 238 434 248 Q 422 236 408 248 Q 394 240 378 260 Z" fill="#8e1f1f"/>
  <path d="M420 232 L398 330 Q 394 342 384 336" fill="none" stroke="#2b2420" stroke-width="3" stroke-linecap="round"/>
</svg>
